<svg preserveAspectRatio="none" overflow="visible" style="display: block;" width="20" height="20" viewBox="0 0 20 20" fill="none" xmlns="http://www.w3.org/2000/svg">
<g id="Icon">
<path id="Vector" d="M13.3333 3.33333H15C15.442 3.33333 15.8659 3.50893 16.1785 3.82149C16.4911 4.13405 16.6667 4.55797 16.6667 5V16.6667C16.6667 17.1087 16.4911 17.5326 16.1785 17.8452C15.8659 18.1577 15.442 18.3333 15 18.3333H10.4167M3.33333 11.25V5C3.33333 4.55797 3.50893 4.13405 3.82149 3.82149C4.13405 3.50893 4.55797 3.33333 5 3.33333H6.66667M7.5 1.66667H12.5C12.9602 1.66667 13.3333 2.03976 13.3333 2.5V4.16667C13.3333 4.6269 12.9602 5 12.5 5H7.5C7.03976 5 6.66667 4.6269 6.66667 4.16667V2.5C6.66667 2.03976 7.03976 1.66667 7.5 1.66667ZM11.1483 13.0216C11.3127 12.8572 11.4431 12.6621 11.532 12.4473C11.621 12.2326 11.6668 12.0024 11.6668 11.7699C11.6668 11.5375 11.621 11.3073 11.532 11.0925C11.4431 10.8778 11.3127 10.6826 11.1483 10.5183C10.9839 10.3539 10.7888 10.2235 10.574 10.1345C10.3593 10.0456 10.1291 9.9998 9.89665 9.9998C9.66419 9.9998 9.43401 10.0456 9.21925 10.1345C9.00449 10.2235 8.80935 10.3539 8.64498 10.5183L4.46998 14.6949C4.27185 14.8929 4.12683 15.1377 4.04831 15.4066L3.35081 17.7983C3.3299 17.87 3.32865 17.946 3.34718 18.0183C3.36572 18.0907 3.40337 18.1567 3.45619 18.2095C3.509 18.2624 3.57505 18.3 3.64741 18.3186C3.71976 18.3371 3.79577 18.3358 3.86748 18.3149L6.25915 17.6174C6.52803 17.5389 6.7728 17.3939 6.97081 17.1958L11.1483 13.0216Z" stroke="#313133" stroke-linecap="round" stroke-linejoin="round"/>
</g>
</svg>
