<svg preserveAspectRatio="none" overflow="visible" style="display: block;" width="4.91503" height="4.91503" viewBox="0 0 4.91503 4.91503" fill="none" xmlns="http://www.w3.org/2000/svg">
<g id="Icon container">
<rect x="0.245475" y="0.245475" width="4.42408" height="4.42408" rx="2.21204" stroke="black" stroke-width="0.49095"/>
<path id="c" d="M2.52719 1.57407C2.8726 1.57407 3.1111 1.76464 3.22836 1.91293L3.24692 1.93637L3.22446 1.95493L2.98422 2.16293L2.96176 2.18344L2.94125 2.16C2.85769 2.06463 2.72151 1.95883 2.52719 1.95883C2.2623 1.95902 2.05844 2.16643 2.05844 2.45786C2.0586 2.7491 2.2624 2.95571 2.52719 2.9559C2.7219 2.9559 2.86808 2.85001 2.95786 2.74497L2.97739 2.72153L3.00082 2.74106L3.24106 2.95004L3.26352 2.9686L3.24496 2.99204C3.12075 3.15086 2.87221 3.34165 2.52719 3.34165C2.04317 3.34145 1.66408 2.95161 1.66391 2.45786C1.66391 1.96394 2.04305 1.57426 2.52719 1.57407Z" fill="black" stroke="black" stroke-width="0.0613688"/>
</g>
</svg>
